Vain-Alt.ufo
<glyph name="exclam" format="1">
  <advance width="660"/>
  <unicode hex="0021"/>
  <unicode hex="003F"/>
  <unicode hex="01C3"/>
  <unicode hex="203C"/>
  <outline>
    <contour>
      <point x="30" y="0" type="line"/>
      <point x="30" y="180" type="line"/>
      <point x="630" y="180" type="line"/>
      <point x="630" y="0" type="line"/>
    </contour>
    <contour>
      <point x="30" y="240" type="line"/>
      <point x="30" y="840" type="line"/>
      <point x="630" y="840" type="line"/>
      <point x="630" y="240" type="line"/>
    </contour>
  </outline>
</glyph>
<glyph name="mod.abv" format="1">
  <advance width="660"/>
  <unicode hex="0022"/>
  <unicode hex="0027"/>
  <unicode hex="002A"/>
  <unicode hex="002D"/>
  <unicode hex="005E"/>
  <unicode hex="0060"/>
  <unicode hex="00A8"/>
  <unicode hex="00AA"/>
  <unicode hex="00AE"/>
  <unicode hex="00AF"/>
  <unicode hex="00B0"/>
  <unicode hex="00B2"/>
  <unicode hex="00B3"/>
  <unicode hex="00B4"/>
  <unicode hex="00B9"/>
  <unicode hex="00BA"/>

  <unicode hex="02B0"/>
  <unicode hex="02B1"/>
  <unicode hex="02B2"/>
  <unicode hex="02B3"/>
  <unicode hex="02B4"/>
  <unicode hex="02B5"/>
  <unicode hex="02B6"/>
  <unicode hex="02B7"/>
  <unicode hex="02B8"/>
  <unicode hex="02B9"/>
  <unicode hex="02BA"/>
  <unicode hex="02BB"/>
  <unicode hex="02BC"/>
  <unicode hex="02BD"/>
  <unicode hex="02BE"/>
  <unicode hex="02BF"/>
  <unicode hex="02C0"/>
  <unicode hex="02C1"/>
  <unicode hex="02C2"/>
  <unicode hex="02C3"/>
  <unicode hex="02C4"/>
  <unicode hex="02C5"/>
  <unicode hex="02C6"/>
  <unicode hex="02C7"/>
  <unicode hex="02C8"/>
  <unicode hex="02C9"/>
  <unicode hex="02CA"/>
  <unicode hex="02CB"/>
  <unicode hex="02D8"/>
  <unicode hex="02D9"/>
  <unicode hex="02DA"/>
  <unicode hex="02DC"/>
  <unicode hex="02DD"/>
  <unicode hex="02DE"/>
  <unicode hex="02DF"/>
  <unicode hex="02E0"/>
  <unicode hex="02E1"/>
  <unicode hex="02E2"/>
  <unicode hex="02E3"/>
  <unicode hex="02E4"/>
  <unicode hex="02EA"/>
  <unicode hex="02EB"/>
  <unicode hex="02ED"/>
  <unicode hex="02EE"/>
  <unicode hex="02F4"/>
  <unicode hex="02F5"/>
  <unicode hex="02F6"/>
  <unicode hex="02F9"/>
  <unicode hex="02FA"/>
  
  <outline>
    <contour>
      <point x="30" y="660" type="line"/>
      <point x="30" y="840" type="line"/>
      <point x="630" y="840" type="line"/>
      <point x="630" y="660" type="line"/>
    </contour>
  </outline>
</glyph>
<glyph name="number" format="1">
  <advance width="660"/>
  <unicode hex="0023"/>
  <unicode hex="0024"/>
  <unicode hex="0025"/>
  <unicode hex="0026"/>
  <unicode hex="002F"/>
  <unicode hex="0030"/>
  <unicode hex="0031"/>
  <unicode hex="0032"/>
  <unicode hex="0033"/>
  <unicode hex="0034"/>
  <unicode hex="0035"/>
  <unicode hex="0036"/>
  <unicode hex="0037"/>
  <unicode hex="0038"/>
  <unicode hex="0039"/>
  <unicode hex="0040"/>
  <unicode hex="005C"/>
  <unicode hex="007C"/>
  <unicode hex="00A2"/>
  <unicode hex="00A3"/>
  <unicode hex="00A4"/>
  <unicode hex="00A5"/>
  <unicode hex="00A6"/>
  <unicode hex="00BC"/>
  <unicode hex="00BD"/>
  <unicode hex="00BE"/>
  <outline>
    <contour>
      <point x="30" y="0" type="line"/>
      <point x="30" y="840" type="line"/>
      <point x="630" y="840" type="line"/>
      <point x="630" y="0" type="line"/>
    </contour>
  </outline>
</glyph>
<glyph name="cap.desc" format="1">
  <advance width="660"/>
  <unicode hex="0028"/>
  <unicode hex="0029"/>
  <unicode hex="005B"/>
  <unicode hex="005D"/>
  <unicode hex="007B"/>
  <unicode hex="007D"/>
  <unicode hex="00A7"/>
  <unicode hex="00A9"/>
  <unicode hex="00B6"/>
  <unicode hex="00FE"/>

  <unicode hex="0191"/>
  <unicode hex="0194"/>
  <unicode hex="019D"/>
  <unicode hex="01AE"/>
  <unicode hex="01C8"/>
  <unicode hex="01CB"/>
  <unicode hex="01F7"/>
  <unicode hex="021C"/>
  <unicode hex="0220"/>
  <unicode hex="0224"/>
  <unicode hex="0248"/>
  <unicode hex="024A"/>
  <unicode hex="0297"/>

  <unicode hex="03B2"/>

  <unicode hex="014A"/>

  <unicode hex="2020"/>
  <unicode hex="2021"/>

  <unicode hex="222B"/>
  
  <outline>
    <contour>
      <point x="30" y="-240" type="line"/>
      <point x="30" y="840" type="line"/>
      <point x="630" y="840" type="line"/>
      <point x="630" y="-240" type="line"/>
    </contour>
  </outline>
</glyph>
<glyph name="mod.mid" format="1">
  <advance width="660"/>
  <unicode hex="002B"/>
  <unicode hex="003A"/>
  <unicode hex="003B"/>
  <unicode hex="003C"/>
  <unicode hex="003D"/>
  <unicode hex="003E"/>
  <unicode hex="007E"/>
  <unicode hex="00AB"/>
  <unicode hex="00AC"/>
  <unicode hex="00AD"/>
  <unicode hex="00B1"/>
  <unicode hex="00B7"/>
  <unicode hex="00BB"/>
  <unicode hex="00D7"/>
  <unicode hex="00F7"/>

  <unicode hex="02D0"/>
  <unicode hex="02D1"/>
  <unicode hex="02D2"/>
  <unicode hex="02D3"/>
  <unicode hex="02D4"/>
  <unicode hex="02D5"/>
  <unicode hex="02D6"/>
  <unicode hex="02D7"/>
  <unicode hex="02E5"/>
  <unicode hex="02E6"/>
  <unicode hex="02E7"/>
  <unicode hex="02E8"/>
  <unicode hex="02E9"/>
  <unicode hex="02F8"/>

  <unicode hex="2010"/>
  <unicode hex="2011"/>
  <unicode hex="2012"/>
  <unicode hex="2013"/>
  <unicode hex="2014"/>
  <unicode hex="2015"/>
  <unicode hex="2016"/>
  <unicode hex="2017"/>
  <unicode hex="2022"/>
  <unicode hex="2039"/>
  <unicode hex="203A"/>
  <unicode hex="2044"/>

  <unicode hex="2212"/>
  <unicode hex="2219"/>
  <unicode hex="2248"/>
  <unicode hex="2260"/>
  <unicode hex="2261"/>
  <unicode hex="2264"/>
  <unicode hex="2265"/>

  <unicode hex="A789"/>
  <unicode hex="A78A"/>
  
  <outline>
    <contour>
      <point x="30" y="330" type="line"/>
      <point x="30" y="510" type="line"/>
      <point x="630" y="510" type="line"/>
      <point x="630" y="330" type="line"/>
    </contour>
  </outline>
</glyph>
<glyph name="mod.blw" format="1">
  <advance width="660"/>
  <unicode hex="002C"/>
  <unicode hex="002E"/>
  <unicode hex="005F"/>
  <unicode hex="00B8"/>

  <unicode hex="02CC"/>
  <unicode hex="02CD"/>
  <unicode hex="02CE"/>
  <unicode hex="02CF"/>
  <unicode hex="02DB"/>
  <unicode hex="02EC"/>
  <unicode hex="02EF"/>

  <unicode hex="02F0"/>
  <unicode hex="02F1"/>
  <unicode hex="02F2"/>
  <unicode hex="02F3"/>
  <unicode hex="02F7"/>
  <unicode hex="02FB"/>
  <unicode hex="02FC"/>
  <unicode hex="02FD"/>
  <unicode hex="02FE"/>
  <unicode hex="02FF"/>

  
  <outline>
    <contour>
      <point x="30" y="0" type="line"/>
      <point x="30" y="180" type="line"/>
      <point x="630" y="180" type="line"/>
      <point x="630" y="0" type="line"/>
    </contour>
  </outline>
</glyph>
<glyph name="cap" format="1">
  <advance width="660"/>
  <unicode hex="0041"/>
  <unicode hex="0042"/>
  <unicode hex="0043"/>
  <unicode hex="0044"/>
  <unicode hex="0045"/>
  <unicode hex="0046"/>
  <unicode hex="0047"/>
  <unicode hex="0048"/>
  <unicode hex="0049"/>
  <unicode hex="004A"/>
  <unicode hex="004B"/>
  <unicode hex="004C"/>
  <unicode hex="004D"/>
  <unicode hex="004E"/>
  <unicode hex="004F"/>
  <unicode hex="0050"/>
  <unicode hex="0051"/>
  <unicode hex="0052"/>
  <unicode hex="0053"/>
  <unicode hex="0054"/>
  <unicode hex="0055"/>
  <unicode hex="0056"/>
  <unicode hex="0057"/>
  <unicode hex="0058"/>
  <unicode hex="0059"/>
  <unicode hex="005A"/>
  <unicode hex="00C6"/>
  <unicode hex="00D0"/>
  <unicode hex="00D8"/>
  <unicode hex="00DE"/>

  <unicode hex="0110"/>
  <unicode hex="0126"/>
  <unicode hex="0132"/>
  <unicode hex="013D"/>
  <unicode hex="013F"/>
  <unicode hex="0141"/>
  <unicode hex="0152"/>
  <unicode hex="0166"/>

  <unicode hex="0181"/>
  <unicode hex="0182"/>
  <unicode hex="0186"/>
  <unicode hex="0187"/>
  <unicode hex="0189"/>
  <unicode hex="018A"/>
  <unicode hex="018E"/>
  <unicode hex="018F"/>
  <unicode hex="0190"/>
  <unicode hex="0193"/>
  <unicode hex="0198"/>
  <unicode hex="019C"/>
  <unicode hex="019F"/>
  <unicode hex="01A0"/>
  <unicode hex="01A2"/>
  <unicode hex="01A4"/>
  <unicode hex="01A7"/>
  <unicode hex="01A9"/>
  <unicode hex="01AC"/>
  <unicode hex="01AF"/>
  <unicode hex="01B1"/>
  <unicode hex="01B2"/>
  <unicode hex="01B3"/>
  <unicode hex="01B5"/>
  <unicode hex="01B7"/>
  <unicode hex="01B8"/>
  <unicode hex="01BB"/>
  <unicode hex="01BC"/>
  <unicode hex="01C4"/>
  <unicode hex="01C5"/>
  <unicode hex="01C7"/>
  <unicode hex="01CA"/>
  <unicode hex="01E4"/>
  <unicode hex="01F1"/>
  <unicode hex="01F2"/>
  <unicode hex="01F6"/>
  <unicode hex="0222"/>
  <unicode hex="023A"/>
  <unicode hex="023B"/>
  <unicode hex="023D"/>
  <unicode hex="023E"/>
  <unicode hex="0241"/>
  <unicode hex="0243"/>
  <unicode hex="0244"/>
  <unicode hex="0245"/>
  <unicode hex="0246"/>
  <unicode hex="024C"/>
  <unicode hex="024E"/>
  <unicode hex="0298"/>

  <unicode hex="0E3F"/>

  <unicode hex="1E9E"/>
  <unicode hex="1EFA"/>
  <unicode hex="1EFC"/>
  <unicode hex="1EFE"/>

  <outline>
    <contour>
      <point x="30" y="0" type="line"/>
      <point x="30" y="840" type="line"/>
      <point x="630" y="840" type="line"/>
      <point x="630" y="0" type="line"/>
    </contour>
  </outline>
</glyph>
<glyph name="caps" format="1">
  <advance width="660"/>
  <unicode hex="0041"/>
  <unicode hex="005A"/>
  <unicode hex="0059"/>
  <unicode hex="0058"/>
  <unicode hex="0057"/>
  <unicode hex="0056"/>
  <unicode hex="0055"/>
  <unicode hex="0054"/>
  <unicode hex="0053"/>
  <unicode hex="0052"/>
  <unicode hex="0051"/>
  <unicode hex="0050"/>
  <unicode hex="004F"/>
  <unicode hex="004E"/>
  <unicode hex="004D"/>
  <unicode hex="004C"/>
  <unicode hex="004B"/>
  <unicode hex="004A"/>
  <unicode hex="0049"/>
  <unicode hex="0048"/>
  <unicode hex="0047"/>
  <unicode hex="0046"/>
  <unicode hex="0045"/>
  <unicode hex="0044"/>
  <unicode hex="0043"/>
  <unicode hex="0042"/>
  <outline>
    <contour>
      <point x="30" y="0" type="line"/>
      <point x="30" y="840" type="line"/>
      <point x="630" y="840" type="line"/>
      <point x="630" y="0" type="line"/>
    </contour>
    <contour>
      <point x="30" y="0" type="move" smooth="yes"/>
    </contour>
  </outline>
</glyph>
<glyph name="small" format="1">
  <advance width="660"/>
  <unicode hex="0061"/>
  <unicode hex="0063"/>
  <unicode hex="0065"/>
  <unicode hex="006D"/>
  <unicode hex="006E"/>
  <unicode hex="006F"/>
  <unicode hex="0072"/>
  <unicode hex="0073"/>
  <unicode hex="0074"/>
  <unicode hex="0075"/>
  <unicode hex="0076"/>
  <unicode hex="0077"/>
  <unicode hex="0078"/>
  <unicode hex="007A"/>
  <unicode hex="00E6"/>
  <unicode hex="00F8"/>

  <unicode hex="0131"/>
  <unicode hex="0138"/>
  <unicode hex="0149"/>
  <unicode hex="0153"/>
  <unicode hex="0167"/>
  <unicode hex="01A1"/>
  <unicode hex="01A8"/>
  <unicode hex="01B0"/>
  <unicode hex="01B6"/>
  <unicode hex="01DD"/>

  <unicode hex="0235"/>
  <unicode hex="0236"/>
  <unicode hex="023C"/>
  <unicode hex="0242"/>
  <unicode hex="0247"/>
  <unicode hex="024D"/>
  <unicode hex="0250"/>
  <unicode hex="0251"/>
  <unicode hex="0252"/>
  <unicode hex="0254"/>
  <unicode hex="0255"/>
  <unicode hex="0258"/>
  <unicode hex="0259"/>
  <unicode hex="025A"/>
  <unicode hex="025B"/>
  <unicode hex="025C"/>
  <unicode hex="025D"/>
  <unicode hex="025E"/>
  <unicode hex="0262"/>
  <unicode hex="0264"/>
  <unicode hex="0268"/>
  <unicode hex="0269"/>
  <unicode hex="026A"/>
  <unicode hex="026F"/>
  <unicode hex="0274"/>
  <unicode hex="0275"/>
  <unicode hex="0276"/>
  <unicode hex="0277"/>
  <unicode hex="0279"/>
  <unicode hex="027E"/>
  <unicode hex="027F"/>
  <unicode hex="0280"/>
  <unicode hex="0281"/>
  <unicode hex="0289"/>
  <unicode hex="028A"/>
  <unicode hex="028B"/>
  <unicode hex="028C"/>
  <unicode hex="028D"/>
  <unicode hex="028F"/>
  <unicode hex="0291"/>
  <unicode hex="0299"/>
  <unicode hex="029A"/>
  <unicode hex="029C"/>
  <unicode hex="029F"/>
  <unicode hex="02A6"/>
  <unicode hex="02A8"/>
  <unicode hex="02AC"/>
  <unicode hex="02AD"/>

  <unicode hex="0E01"/>
  <unicode hex="0E02"/>
  <unicode hex="0E03"/>
  <unicode hex="0E04"/>
  <unicode hex="0E05"/>
  <unicode hex="0E06"/>
  <unicode hex="0E07"/>
  <unicode hex="0E08"/>
  <unicode hex="0E09"/>
  <unicode hex="0E0A"/>
  <unicode hex="0E0B"/>
  <unicode hex="0E0C"/>
  <unicode hex="0E0D"/>
  <unicode hex="0E10"/>
  <unicode hex="0E11"/>
  <unicode hex="0E12"/>
  <unicode hex="0E13"/>
  <unicode hex="0E14"/>
  <unicode hex="0E15"/>
  <unicode hex="0E16"/>
  <unicode hex="0E17"/>
  <unicode hex="0E18"/>
  <unicode hex="0E19"/>
  <unicode hex="0E1A"/>
  <unicode hex="0E1C"/>
  <unicode hex="0E1E"/>
  <unicode hex="0E20"/>
  <unicode hex="0E21"/>
  <unicode hex="0E22"/>
  <unicode hex="0E23"/>
  <unicode hex="0E25"/>
  <unicode hex="0E27"/>
  <unicode hex="0E28"/>
  <unicode hex="0E29"/>
  <unicode hex="0E2A"/>
  <unicode hex="0E2B"/>
  <unicode hex="0E2C"/>
  <unicode hex="0E2D"/>
  <unicode hex="0E2E"/>
  <unicode hex="0E2F"/>
  <unicode hex="0E30"/>
  <unicode hex="0E32"/>
  <unicode hex="0E33"/>
  <unicode hex="0E40"/>
  <unicode hex="0E41"/>
  <unicode hex="0E4F"/>
  <unicode hex="0E50"/>
  <unicode hex="0E51"/>
  <unicode hex="0E52"/>
  <unicode hex="0E53"/>
  <unicode hex="0E54"/>
  <unicode hex="0E55"/>
  <unicode hex="0E56"/>
  <unicode hex="0E57"/>
  <unicode hex="0E58"/>
  <unicode hex="0E59"/>
  <unicode hex="0E5A"/>
  <unicode hex="0E5B"/>

  <outline>
    <contour>
      <point x="30" y="0" type="line"/>
      <point x="30" y="600" type="line"/>
      <point x="630" y="600" type="line"/>
      <point x="630" y="0" type="line"/>
    </contour>
  </outline>
</glyph>
<glyph name="small.asc" format="1">
  <advance width="660"/>
  <unicode hex="0062"/>
  <unicode hex="0064"/>
  <unicode hex="0066"/>
  <unicode hex="0068"/>
  <unicode hex="006B"/>
  <unicode hex="006C"/>
  <unicode hex="00DF"/>
  <unicode hex="00F0"/>

  <unicode hex="010F"/>
  <unicode hex="0111"/>
  <unicode hex="0127"/>
  <unicode hex="013E"/>
  <unicode hex="0140"/>
  <unicode hex="0142"/>
  <unicode hex="017F"/>

  <unicode hex="0180"/>
  <unicode hex="0183"/>
  <unicode hex="0184"/>
  <unicode hex="0185"/>
  <unicode hex="0188"/>
  <unicode hex="018B"/>
  <unicode hex="018C"/>
  <unicode hex="0195"/>
  <unicode hex="0196"/>
  <unicode hex="0197"/>
  <unicode hex="0199"/>
  <unicode hex="019A"/>
  <unicode hex="019B"/>
  <unicode hex="01A6"/>
  <unicode hex="01AD"/>
  <unicode hex="01BE"/>
  <unicode hex="01C0"/>
  <unicode hex="01C1"/>
  <unicode hex="01C2"/>
  <unicode hex="01F3"/>
  <unicode hex="0221"/>
  <unicode hex="0223"/>
  <unicode hex="0234"/>
  <unicode hex="0238"/>
  <unicode hex="0253"/>
  <unicode hex="0257"/>
  <unicode hex="0266"/>
  <unicode hex="026B"/>
  <unicode hex="026C"/>
  <unicode hex="027A"/>
  <unicode hex="0286"/>
  <unicode hex="028E"/>
  <unicode hex="0294"/>
  <unicode hex="0295"/>
  <unicode hex="0296"/>
  <unicode hex="029B"/>
  <unicode hex="02A1"/>
  <unicode hex="02A2"/>
  <unicode hex="02A3"/>
  <unicode hex="02A5"/>
  <unicode hex="02AA"/>
  <unicode hex="02AB"/>

  <unicode hex="0E1B"/>
  <unicode hex="0E1D"/>
  <unicode hex="0E1F"/>
  <unicode hex="0E42"/>
  <unicode hex="0E43"/>
  <unicode hex="0E44"/>

  <unicode hex="0E9B"/>
  <unicode hex="0E9D"/>
  <unicode hex="0E9F"/>
  <unicode hex="0EA2"/>
  <unicode hex="0EC2"/>
  <unicode hex="0EC3"/>
  <unicode hex="0EC4"/>

  <unicode hex="FB01"/>
  <unicode hex="FB02"/>
  <outline>
    <contour>
      <point x="30" y="0" type="line"/>
      <point x="30" y="840" type="line"/>
      <point x="630" y="840" type="line"/>
      <point x="630" y="0" type="line"/>
    </contour>
  </outline>
</glyph>
<glyph name="small.desc" format="1">
  <advance width="660"/>
  <unicode hex="0067"/>
  <unicode hex="0070"/>
  <unicode hex="0071"/>
  <unicode hex="0079"/>
  <unicode hex="00B5"/>

  <unicode hex="014B"/>
  <unicode hex="018D"/>
  <unicode hex="0192"/>
  <unicode hex="019E"/>
  <unicode hex="01A3"/>
  <unicode hex="01A5"/>
  <unicode hex="01AA"/>
  <unicode hex="01AB"/>
  <unicode hex="01B4"/>
  <unicode hex="01B9"/>
  <unicode hex="01BA"/>
  <unicode hex="01BD"/>
  <unicode hex="01BF"/>
  <unicode hex="01C9"/>
  <unicode hex="01E5"/>
  
  <unicode hex="021D"/>
  <unicode hex="0225"/>
  <unicode hex="0237"/>
  <unicode hex="0239"/>
  <unicode hex="023F"/>
  <unicode hex="0240"/>
  <unicode hex="0249"/>
  <unicode hex="024B"/>
  <unicode hex="024F"/>
  <unicode hex="0256"/>
  <unicode hex="025F"/>
  <unicode hex="0260"/>
  <unicode hex="0261"/>
  <unicode hex="0263"/>
  <unicode hex="0265"/>
  <unicode hex="0267"/>
  <unicode hex="026D"/>
  <unicode hex="026E"/>
  <unicode hex="0270"/>
  <unicode hex="0271"/>
  <unicode hex="0272"/>
  <unicode hex="0273"/>
  <unicode hex="0278"/>
  <unicode hex="027B"/>
  <unicode hex="027C"/>
  <unicode hex="027D"/>
  <unicode hex="0282"/>
  <unicode hex="0283"/>
  <unicode hex="0284"/>
  <unicode hex="0285"/>
  <unicode hex="0287"/>
  <unicode hex="0288"/>
  <unicode hex="0290"/>
  <unicode hex="0292"/>
  <unicode hex="0293"/>
  <unicode hex="029D"/>
  <unicode hex="029E"/>
  <unicode hex="02A0"/>
  <unicode hex="02A4"/>
  <unicode hex="02A7"/>
  <unicode hex="02A9"/>
  <unicode hex="02AE"/>
  <unicode hex="02AF"/>

  <unicode hex="0E0E"/>
  <unicode hex="0E0F"/>
  <unicode hex="0E24"/>
  <unicode hex="0E26"/>
  <unicode hex="0E45"/>
  <unicode hex="0E46"/>

  <unicode hex="0E87"/>
  <unicode hex="0E8A"/>

  <unicode hex="0E96"/>
  <unicode hex="0EBD"/>
  <unicode hex="0EC6"/>
  
  <unicode hex="0EAF"/>

  <outline>
    <contour>
      <point x="30" y="-240" type="line"/>
      <point x="30" y="600" type="line"/>
      <point x="630" y="600" type="line"/>
      <point x="630" y="-240" type="line"/>
    </contour>
  </outline>
</glyph>
<glyph name="small.abv" format="1">
  <advance width="660"/>
  <unicode hex="0069"/>
  <unicode hex="00E0"/>
  <unicode hex="00E1"/>
  <unicode hex="00E2"/>
  <unicode hex="00E3"/>
  <unicode hex="00E4"/>
  <unicode hex="00E5"/>
  <unicode hex="00E8"/>
  <unicode hex="00E9"/>
  <unicode hex="00EA"/>
  <unicode hex="00EB"/>
  <unicode hex="00EC"/>
  <unicode hex="00ED"/>
  <unicode hex="00EE"/>
  <unicode hex="00EF"/>
  <unicode hex="00F1"/>
  <unicode hex="00F2"/>
  <unicode hex="00F3"/>
  <unicode hex="00F4"/>
  <unicode hex="00F5"/>
  <unicode hex="00F6"/>
  <unicode hex="00F9"/>
  <unicode hex="00FA"/>
  <unicode hex="00FB"/>
  <unicode hex="00FC"/>
  <unicode hex="00FD"/>
  <unicode hex="00FF"/>

  <unicode hex="0101"/>
  <unicode hex="0103"/>
  <unicode hex="0107"/>
  <unicode hex="0109"/>
  <unicode hex="010B"/>
  <unicode hex="010D"/>
  <unicode hex="0113"/>
  <unicode hex="0115"/>
  <unicode hex="0117"/>
  <unicode hex="011B"/>
  <unicode hex="011D"/>
  <unicode hex="011F"/>
  <unicode hex="0121"/>
  <unicode hex="0123"/>
  <unicode hex="0125"/>
  <unicode hex="0129"/>
  <unicode hex="012B"/>
  <unicode hex="012D"/>
  <unicode hex="0144"/>
  <unicode hex="0148"/>
  <unicode hex="014D"/>
  <unicode hex="014F"/>
  <unicode hex="0151"/>
  <unicode hex="0155"/>
  <unicode hex="0159"/>
  <unicode hex="015B"/>
  <unicode hex="015D"/>
  <unicode hex="0161"/>
  <unicode hex="0165"/>
  <unicode hex="0169"/>
  <unicode hex="016B"/>
  <unicode hex="016D"/>
  <unicode hex="016F"/>
  <unicode hex="0171"/>
  <unicode hex="0175"/>
  <unicode hex="0177"/>
  <unicode hex="017A"/>
  <unicode hex="017C"/>
  <unicode hex="017E"/>
  <unicode hex="01CE"/>
  <unicode hex="01D0"/>
  <unicode hex="01D2"/>
  <unicode hex="01D4"/>
  <unicode hex="01E3"/>
  <unicode hex="01E7"/>
  <unicode hex="01F5"/>
  <unicode hex="01F9"/>
  <unicode hex="01FD"/>
  <unicode hex="01FF"/>
  <unicode hex="0201"/>
  <unicode hex="0203"/>
  <unicode hex="0205"/>
  <unicode hex="0207"/>
  <unicode hex="0209"/>
  <unicode hex="020B"/>
  <unicode hex="020D"/>
  <unicode hex="020F"/>
  <unicode hex="0211"/>
  <unicode hex="0213"/>
  <unicode hex="0215"/>
  <unicode hex="0217"/>
  <unicode hex="0227"/>
  <unicode hex="022F"/>

  <outline>
    <contour>
      <point x="30" y="660" type="line"/>
      <point x="30" y="840" type="line"/>
      <point x="630" y="840" type="line"/>
      <point x="630" y="660" type="line"/>
    </contour>
    <contour>
      <point x="30" y="0" type="line"/>
      <point x="30" y="600" type="line"/>
      <point x="630" y="600" type="line"/>
      <point x="630" y="0" type="line"/>
    </contour>
  </outline>
</glyph>
<glyph name="small.desc.abv" format="1">
  <advance width="660"/>
  <unicode hex="006A"/>
  <unicode hex="00A1"/>
  <unicode hex="00BF"/>
  <unicode hex="0133"/>
  <unicode hex="0135"/>
  <unicode hex="01C6"/>
  <unicode hex="01C9"/>
  <unicode hex="01CC"/>
  <unicode hex="01EF"/>
  <unicode hex="01F0"/>
  <unicode hex="0233"/>

  <unicode hex="1E21"/>
  <unicode hex="1E55"/>
  <unicode hex="1E57"/>
  <unicode hex="1E99"/>
  <unicode hex="1EF3"/>
  <unicode hex="1EF7"/>
  <unicode hex="1EF9"/>

  <outline>
    <contour>
      <point x="30" y="660" type="line"/>
      <point x="30" y="840" type="line"/>
      <point x="630" y="840" type="line"/>
      <point x="630" y="660" type="line"/>
    </contour>
    <contour>
      <point x="30" y="-240" type="line"/>
      <point x="30" y="600" type="line"/>
      <point x="630" y="600" type="line"/>
      <point x="630" y="-240" type="line"/>
    </contour>
  </outline>
</glyph>
<glyph name="cap.abv" format="1">
  <advance width="660"/>
  <unicode hex="00C0"/>
  <unicode hex="00C1"/>
  <unicode hex="00C2"/>
  <unicode hex="00C3"/>
  <unicode hex="00C4"/>
  <unicode hex="00C5"/>
  <unicode hex="00C8"/>
  <unicode hex="00C9"/>
  <unicode hex="00CA"/>
  <unicode hex="00CB"/>
  <unicode hex="00CC"/>
  <unicode hex="00CD"/>
  <unicode hex="00CE"/>
  <unicode hex="00CF"/>
  <unicode hex="00D1"/>
  <unicode hex="00D2"/>
  <unicode hex="00D3"/>
  <unicode hex="00D4"/>
  <unicode hex="00D5"/>
  <unicode hex="00D6"/>
  <unicode hex="00D9"/>
  <unicode hex="00DA"/>
  <unicode hex="00DB"/>
  <unicode hex="00DC"/>
  <unicode hex="00DD"/>

  <unicode hex="0100"/>
  <unicode hex="0102"/>
  <unicode hex="0106"/>
  <unicode hex="0108"/>
  <unicode hex="010A"/>
  <unicode hex="010C"/>
  <unicode hex="010E"/>
  <unicode hex="0112"/>
  <unicode hex="0114"/>
  <unicode hex="0116"/>
  <unicode hex="011A"/>
  <unicode hex="011C"/>
  <unicode hex="011E"/>
  <unicode hex="0120"/>
  <unicode hex="0124"/>
  <unicode hex="0128"/>
  <unicode hex="012A"/>
  <unicode hex="012C"/>
  <unicode hex="0130"/>
  <unicode hex="0134"/>
  <unicode hex="0139"/>
  <unicode hex="0143"/>
  <unicode hex="0147"/>
  <unicode hex="014C"/>
  <unicode hex="014E"/>
  <unicode hex="0150"/>
  <unicode hex="0154"/>
  <unicode hex="0158"/>
  <unicode hex="015A"/>
  <unicode hex="015C"/>
  <unicode hex="0160"/>
  <unicode hex="0164"/>
  <unicode hex="0168"/>
  <unicode hex="016A"/>
  <unicode hex="016C"/>
  <unicode hex="016E"/>
  <unicode hex="0170"/>
  <unicode hex="0174"/>
  <unicode hex="0176"/>
  <unicode hex="0178"/>
  <unicode hex="0179"/>
  <unicode hex="017B"/>
  <unicode hex="017D"/>

  <unicode hex="01CD"/>
  <unicode hex="01CF"/>
  <unicode hex="01D1"/>
  <unicode hex="01D3"/>
  <unicode hex="01E2"/>
  <unicode hex="01E6"/>
  <unicode hex="01E8"/>
  <unicode hex="01E9"/>
  <unicode hex="01EE"/>
  <unicode hex="01F4"/>
  <unicode hex="01F8"/>
  <unicode hex="01FC"/>
  <unicode hex="01FE"/>

  <unicode hex="0200"/>
  <unicode hex="0202"/>
  <unicode hex="0204"/>
  <unicode hex="0206"/>
  <unicode hex="0208"/>
  <unicode hex="020A"/>
  <unicode hex="020C"/>
  <unicode hex="020E"/>
  <unicode hex="0210"/>
  <unicode hex="0212"/>
  <unicode hex="0214"/>
  <unicode hex="0216"/>
  <unicode hex="021E"/>
  <unicode hex="021F"/>
  <unicode hex="0226"/>
  <unicode hex="022E"/>
  <unicode hex="0232"/>

  <unicode hex="1E02"/>
  <unicode hex="1E0A"/>
  <unicode hex="1E1E"/>
  <unicode hex="1E20"/>
  <unicode hex="1E22"/>
  <unicode hex="1E26"/>
  <unicode hex="1E30"/>
  <unicode hex="1E3E"/>
  <unicode hex="1E40"/>
  <unicode hex="1E44"/>
  <unicode hex="1E54"/>
  <unicode hex="1E56"/>
  <unicode hex="1E58"/>
  <unicode hex="1E60"/>
  <unicode hex="1E6A"/>
  <unicode hex="1E7C"/>
  <unicode hex="1E80"/>
  <unicode hex="1E82"/>
  <unicode hex="1E84"/>
  <unicode hex="1E86"/>
  <unicode hex="1E8A"/>
  <unicode hex="1E8C"/>
  <unicode hex="1E8E"/>
  <unicode hex="1E90"/>
  <unicode hex="1EA2"/>
  <unicode hex="1EBA"/>
  <unicode hex="1EBC"/>
  <unicode hex="1EC8"/>
  <unicode hex="1ECE"/>
  <unicode hex="1EDA"/>
  <unicode hex="1EDC"/>
  <unicode hex="1EDE"/>
  <unicode hex="1EE0"/>
  <unicode hex="1EE6"/>
  <unicode hex="1EE8"/>
  <unicode hex="1EEA"/>
  <unicode hex="1EEC"/>
  <unicode hex="1EEE"/>
  <unicode hex="1EF2"/>
  <unicode hex="1EF6"/>
  <unicode hex="1EF8"/>

  <unicode hex="1E03"/>
  <unicode hex="1E0B"/>
  <unicode hex="1E1F"/>
  <unicode hex="1E23"/>
  <unicode hex="1E27"/>
  <unicode hex="1E31"/>
  <unicode hex="1E9B"/>

  <outline>
    <contour>
      <point x="30" y="900" type="line"/>
      <point x="30" y="1080" type="line"/>
      <point x="630" y="1080" type="line"/>
      <point x="630" y="900" type="line"/>
    </contour>
    <contour>
      <point x="30" y="0" type="line"/>
      <point x="30" y="840" type="line"/>
      <point x="630" y="840" type="line"/>
      <point x="630" y="0" type="line"/>
    </contour>
  </outline>
</glyph>
<glyph name="cap.blw" format="1">
  <advance width="660"/>
  <unicode hex="00C7"/>
  <unicode hex="0104"/>
  <unicode hex="0118"/>
  <unicode hex="0122"/>
  <unicode hex="012E"/>
  <unicode hex="0136"/>
  <unicode hex="013B"/>
  <unicode hex="0145"/>
  <unicode hex="0156"/>
  <unicode hex="015E"/>
  <unicode hex="0162"/>
  <unicode hex="0172"/>
  <unicode hex="01EA"/>
  <unicode hex="0218"/>
  <unicode hex="021A"/>
  <unicode hex="0228"/>

  <outline>
    <contour>
      <point x="30" y="-240" type="line"/>
      <point x="30" y="-60" type="line"/>
      <point x="630" y="-60" type="line"/>
      <point x="630" y="-240" type="line"/>
    </contour>
    <contour>
      <point x="30" y="0" type="line"/>
      <point x="30" y="840" type="line"/>
      <point x="630" y="840" type="line"/>
      <point x="630" y="0" type="line"/>
    </contour>
  </outline>
</glyph>
<glyph name="small.blw" format="1">
  <advance width="660"/>
  <unicode hex="00E7"/>
  <unicode hex="0105"/>
  <unicode hex="0119"/>
  <unicode hex="0146"/>
  <unicode hex="0157"/>
  <unicode hex="015F"/>
  <unicode hex="0163"/>
  <unicode hex="0173"/>
  <unicode hex="01EB"/>
  <unicode hex="0219"/>
  <unicode hex="021B"/>
  <unicode hex="0229"/>

  <unicode hex="1E01"/>
  <unicode hex="1E05"/>
  <unicode hex="1E07"/>
  <unicode hex="1E0D"/>
  <unicode hex="1E0F"/>
  <unicode hex="1E11"/>
  <unicode hex="1E13"/>
  <unicode hex="1E19"/>
  <unicode hex="1E1B"/>
  
  <unicode hex="1E25"/>
  <unicode hex="1E29"/>
  <unicode hex="1E2B"/>
  <unicode hex="1E43"/>
  <unicode hex="1E47"/>
  <unicode hex="1E49"/>
  <unicode hex="1E4B"/>
  <unicode hex="1E5B"/>
  <unicode hex="1E5F"/>
  <unicode hex="1E63"/>
  <unicode hex="1E6D"/>
  <unicode hex="1E6F"/>
  <unicode hex="1E71"/>
  <unicode hex="1E73"/>
  <unicode hex="1E75"/>
  <unicode hex="1E77"/>
  <unicode hex="1E7F"/>
  <unicode hex="1E89"/>
  <unicode hex="1E93"/>
  <unicode hex="1E95"/>
  <unicode hex="1EA1"/>
  <unicode hex="1EB9"/>
  <unicode hex="1ECD"/>
  <unicode hex="1EE3"/>
  <unicode hex="1EE5"/>
  <unicode hex="1EF1"/>
  <unicode hex="1EF5"/>
  
  <outline>
    <contour>
      <point x="30" y="-240" type="line"/>
      <point x="30" y="-60" type="line"/>
      <point x="630" y="-60" type="line"/>
      <point x="630" y="-240" type="line"/>
    </contour>
    <contour>
      <point x="30" y="0" type="line"/>
      <point x="30" y="600" type="line"/>
      <point x="630" y="600" type="line"/>
      <point x="630" y="0" type="line"/>
    </contour>
  </outline>
</glyph>
<glyph name="small.blw.abv" format="1">
  <advance width="660"/>
  <unicode hex="012F"/>
  <unicode hex="1E09"/>
  <unicode hex="01ED"/>
  <outline>
    <contour>
      <point x="30" y="660" type="line"/>
      <point x="30" y="840" type="line"/>
      <point x="630" y="840" type="line"/>
      <point x="630" y="660" type="line"/>
    </contour>
    <contour>
      <point x="30" y="0" type="line"/>
      <point x="30" y="600" type="line"/>
      <point x="630" y="600" type="line"/>
      <point x="630" y="0" type="line"/>
    </contour>
    <contour>
      <point x="30" y="-240" type="line"/>
      <point x="30" y="-60" type="line"/>
      <point x="630" y="-60" type="line"/>
      <point x="630" y="-240" type="line"/>
    </contour>
  </outline>
</glyph>
<glyph name="small.asc.blw" format="1">
  <advance width="660"/>
  <unicode hex="0137"/>
  <unicode hex="013A"/>
  <unicode hex="013C"/>

  <unicode hex="1E33"/>
  <unicode hex="1E35"/>
  <unicode hex="1E37"/>
  <unicode hex="1E3B"/>
  <unicode hex="1E3D"/>
  <unicode hex="1E96"/>
  
  <outline>
    <contour>
      <point x="30" y="-240" type="line"/>
      <point x="30" y="-60" type="line"/>
      <point x="630" y="-60" type="line"/>
      <point x="630" y="-240" type="line"/>
    </contour>
    <contour>
      <point x="30" y="0" type="line"/>
      <point x="30" y="840" type="line"/>
      <point x="630" y="840" type="line"/>
      <point x="630" y="0" type="line"/>
    </contour>
  </outline>
</glyph>
<glyph name="cap.abv.abv" format="1">
  <advance width="660"/>
  <unicode hex="01D5"/>
  <unicode hex="01D7"/>
  <unicode hex="01D9"/>
  <unicode hex="01DB"/>
  <unicode hex="01DE"/>
  <unicode hex="01E0"/>
  <unicode hex="01FA"/>
  <unicode hex="022A"/>
  <unicode hex="022C"/>
  <unicode hex="0230"/>

  <unicode hex="1E14"/>
  <unicode hex="1E16"/>
  <unicode hex="1E2E"/>
  <unicode hex="1E4C"/>
  <unicode hex="1E4E"/>
  <unicode hex="1E50"/>
  <unicode hex="1E52"/>
  <unicode hex="1E64"/>
  <unicode hex="1E66"/>
  <unicode hex="1E78"/>
  <unicode hex="1E7A"/>
  <unicode hex="1EA4"/>
  <unicode hex="1EA6"/>
  <unicode hex="1EA8"/>
  <unicode hex="1EAA"/>
  <unicode hex="1EAE"/>
  <unicode hex="1EB0"/>
  <unicode hex="1EB2"/>
  <unicode hex="1EB4"/>
  <unicode hex="1EBE"/>
  <unicode hex="1EC0"/>
  <unicode hex="1EC2"/>
  <unicode hex="1EC4"/>
  <unicode hex="1ED0"/>
  <unicode hex="1ED2"/>
  <unicode hex="1ED4"/>
  <unicode hex="1ED6"/>
  
  <outline>
    <contour>
      <point x="30" y="1140" type="line"/>
      <point x="30" y="1320" type="line"/>
      <point x="630" y="1320" type="line"/>
      <point x="630" y="1140" type="line"/>
    </contour>
    <contour>
      <point x="30" y="900" type="line"/>
      <point x="30" y="1080" type="line"/>
      <point x="630" y="1080" type="line"/>
      <point x="630" y="900" type="line"/>
    </contour>
    <contour>
      <point x="30" y="0" type="line"/>
      <point x="30" y="840" type="line"/>
      <point x="630" y="840" type="line"/>
      <point x="630" y="0" type="line"/>
    </contour>
  </outline>
</glyph>
<glyph name="small.abv.abv" format="1">
  <advance width="660"/>
  <unicode hex="01D6"/>
  <unicode hex="01D8"/>
  <unicode hex="01DA"/>
  <unicode hex="01DC"/>
  <unicode hex="01DF"/>
  <unicode hex="01E1"/>
  <unicode hex="01FB"/>
  <unicode hex="022B"/>
  <unicode hex="022D"/>
  <unicode hex="0231"/>
  <outline>
    <contour>
      <point x="30" y="900" type="line"/>
      <point x="30" y="1080" type="line"/>
      <point x="630" y="1080" type="line"/>
      <point x="630" y="900" type="line"/>
    </contour>
    <contour>
      <point x="30" y="660" type="line"/>
      <point x="30" y="840" type="line"/>
      <point x="630" y="840" type="line"/>
      <point x="630" y="660" type="line"/>
    </contour>
    <contour>
      <point x="30" y="0" type="line"/>
      <point x="30" y="600" type="line"/>
      <point x="630" y="600" type="line"/>
      <point x="630" y="0" type="line"/>
    </contour>
  </outline>
</glyph>
<glyph name="comb.abv" format="1">
  <advance width="0"/>
  <unicode hex="0300"/>
  <unicode hex="0301"/>
  <unicode hex="0302"/>
  <unicode hex="0303"/>
  <unicode hex="0304"/>
  <unicode hex="0305"/>
  <unicode hex="0306"/>
  <unicode hex="0307"/>
  <unicode hex="0308"/>
  <unicode hex="0309"/>
  <unicode hex="030A"/>
  <unicode hex="030B"/>
  <unicode hex="030C"/>
  <unicode hex="030D"/>
  <unicode hex="030C"/>
  <unicode hex="030D"/>
  <unicode hex="030E"/>
  <unicode hex="030F"/>
  <unicode hex="0310"/>
  <unicode hex="0311"/>
  <unicode hex="0312"/>
  <unicode hex="0313"/>
  <unicode hex="0314"/>
  <unicode hex="0315"/>
  <unicode hex="031A"/>
  <unicode hex="033D"/>
  <unicode hex="033E"/>
  <unicode hex="033F"/>
  <unicode hex="0340"/>
  <unicode hex="0341"/>
  <unicode hex="0342"/>
  <unicode hex="0343"/>
  <unicode hex="0344"/>
  <unicode hex="0346"/>
  <unicode hex="034A"/>
  <unicode hex="034B"/>
  <unicode hex="034C"/>
  <unicode hex="0350"/>
  <unicode hex="0351"/>
  <unicode hex="0352"/>
  <unicode hex="0357"/>
  <unicode hex="035B"/>
  <unicode hex="035D"/>
  <unicode hex="035E"/>
  <unicode hex="0360"/>
  <unicode hex="0361"/>
  <unicode hex="0362"/>
  <unicode hex="0363"/>
  <unicode hex="0364"/>
  <unicode hex="0365"/>
  <unicode hex="0366"/>
  <unicode hex="0367"/>
  <unicode hex="0368"/>
  <unicode hex="0369"/>
  <unicode hex="036A"/>
  <unicode hex="036B"/>
  <unicode hex="036C"/>
  <unicode hex="036D"/>
  <unicode hex="036E"/>
  <unicode hex="036F"/>
  <outline>
    <contour>
      <point x="-630" y="660" type="line"/>
      <point x="-630" y="840" type="line"/>
      <point x="-30" y="840" type="line"/>
      <point x="-30" y="660" type="line"/>
    </contour>
  </outline>
</glyph>
<glyph name="comb.blw" format="1">
  <advance width="0"/>
  <unicode hex="0316"/>
  <unicode hex="0317"/>
  <unicode hex="0318"/>
  <unicode hex="0319"/>
  <unicode hex="031C"/>
  <unicode hex="031D"/>
  <unicode hex="031E"/>
  <unicode hex="031F"/>
  <unicode hex="0320"/>
  <unicode hex="0321"/>
  <unicode hex="0322"/>
  <unicode hex="0323"/>
  <unicode hex="0324"/>
  <unicode hex="0325"/>
  <unicode hex="0326"/>
  <unicode hex="0327"/>
  <unicode hex="0328"/>
  <unicode hex="0329"/>
  <unicode hex="032A"/>
  <unicode hex="032B"/>
  <unicode hex="032C"/>
  <unicode hex="032D"/>
  <unicode hex="032E"/>
  <unicode hex="032F"/>
  <unicode hex="0330"/>
  <unicode hex="0331"/>
  <unicode hex="0332"/>
  <unicode hex="0333"/>
  <unicode hex="0339"/>
  <unicode hex="033A"/>
  <unicode hex="033B"/>
  <unicode hex="033C"/>
  <unicode hex="0345"/>
  <unicode hex="0347"/>
  <unicode hex="0348"/>
  <unicode hex="0349"/>
  <unicode hex="034D"/>
  <unicode hex="034E"/>
  <unicode hex="0353"/>
  <unicode hex="0354"/>
  <unicode hex="0355"/>
  <unicode hex="0356"/>
  <unicode hex="0359"/>
  <unicode hex="035A"/>
  <unicode hex="035C"/>
  <unicode hex="035F"/>
  <unicode hex="0362"/>

  <unicode hex="0E38"/>
  <unicode hex="0E39"/>
  <unicode hex="0E3A"/>
  <outline>
    <contour>
      <point x="-630" y="-240" type="line"/>
      <point x="-630" y="-60" type="line"/>
      <point x="-30" y="-60" type="line"/>
      <point x="-30" y="-240" type="line"/>
    </contour>
  </outline>
</glyph>
<glyph name="comb.abv.abv" format="1">
  <advance width="0"/>
  <unicode hex="1DC4"/>
  <unicode hex="1DC5"/>
  <unicode hex="1DC6"/>
  <unicode hex="1DC7"/>
  <outline>
    <contour>
      <point x="-630" y="900" type="line"/>
      <point x="-630" y="1080" type="line"/>
      <point x="-30" y="1080" type="line"/>
      <point x="-30" y="900" type="line"/>
    </contour>
    <contour>
      <point x="-630" y="660" type="line"/>
      <point x="-630" y="840" type="line"/>
      <point x="-30" y="840" type="line"/>
      <point x="-30" y="660" type="line"/>
    </contour>
  </outline>
</glyph>
<glyph name="cap.blw.abv" format="1">
  <advance width="660"/>
  <unicode hex="1E08"/>
  <unicode hex="01EC"/>

  <unicode hex="1E1C"/>
  <unicode hex="1E38"/>
  <unicode hex="1E39"/>
  <unicode hex="1E5C"/>
  <unicode hex="1E68"/>
  <unicode hex="1EAC"/>
  <unicode hex="1EB6"/>
  <unicode hex="1EC6"/>
  <unicode hex="1ED8"/>
  
  <outline>
    <contour>
      <point x="30" y="900" type="line"/>
      <point x="30" y="1080" type="line"/>
      <point x="630" y="1080" type="line"/>
      <point x="630" y="900" type="line"/>
    </contour>
    <contour>
      <point x="30" y="0" type="line"/>
      <point x="30" y="840" type="line"/>
      <point x="630" y="840" type="line"/>
      <point x="630" y="0" type="line"/>
    </contour>
    <contour>
      <point x="30" y="-240" type="line"/>
      <point x="30" y="-60" type="line"/>
      <point x="630" y="-60" type="line"/>
      <point x="630" y="-240" type="line"/>
    </contour>
  </outline>
</glyph>
<glyph name=".notdef" format="1">
  <advance width="660"/>
  <outline>
    <contour>
      <point x="30" y="0" type="line"/>
      <point x="30" y="600" type="line"/>
      <point x="630" y="600" type="line"/>
      <point x="630" y="0" type="line"/>
    </contour>
    <contour>
      <point x="90" y="60" type="line"/>
      <point x="570" y="60" type="line"/>
      <point x="570" y="540" type="line"/>
      <point x="90" y="540" type="line"/>
    </contour>
  </outline>
</glyph>
